{"title":"Deadpool.2016.BRRip.720p.x264.AAC-PRiSTiNE [P2PDL]","uid":14450791,"size":740878684,"categoryP":"video","categoryS":"hd___movies","magnet":"?xt=urn:btih:4c064714ebd451fd0ba69f72bb9a763cce3c426a&amp;dn=Deadpool.2016.BRRip.720p.x264.AAC-PRiSTiNE+%5BP2PDL%5D&amp;tr=udp%3A%2F%2Ftracker.leechers-paradise.org%3A6969&amp;tr=udp%3A%2F%2Fzer0day.ch%3A1337&amp;tr=udp%3A%2F%2Fopen.demonii.com%3A1337&amp;tr=udp%3A%2F%2Ftracker.coppersurfer.tk%3A6969&amp;tr=udp%3A%2F%2Fexodus.desync.com%3A6969","seeders":1,"leechers":3,"uploader":"VYTOP2PDL","files":7,"time":1461745677,"description":"Deadpool.2016.BRRip.720p.x264.AAC-PRiSTiNE\r\n\r\n\r\nGenre: Action, Adventure, Comedy  \nhttp://www.imdb.com/title/tt1431045/\r\n\r\n\r\nFormat                                   : MPEG-4\r\nFile size                                : 697 MiB\r\nDuration                                 : 1h 48mn\r\nOverall bit rate                         : 901 Kbps\r\n\r\nVideo\r\nFormat                                   : AVC\r\nBit rate                                 : 818 Kbps\r\nWidth                                    : 1 264 pixels\r\nHeight                                   : 528 pixels\r\nDisplay aspect ratio                     : 2.40:1\r\nFrame rate mode                          : Constant\r\nFrame rate                               : 23.976 fps\r\nBit depth                                : 8 bits\r\nStream size                              : 632 MiB (91%)\r\nWriting library                          : x264\r\n\r\nAudio\r\nFormat                                   : AAC\r\nBit rate mode                            : Variable\r\nBit rate                                 : 80.0 Kbps\r\nChannel(s)                               : 2 channels\r\nChannel positions                        : Front: L R\r\nSampling rate                            : 48.0 KHz\r\nStream size                              : 61.8 MiB (9%)\r\nLanguage                                 : English\r\n\r\nSubtitle                                 : Yes (English)\r\n\r\nScreen Shots: (Click links to view)\r\n \nhttps://ititli.com/XmS \nhttps://ititli.com/XmZ \nhttps://ititli.com/Xmc \nhttps://ititli.com/Xmi \nhttps://ititli.com/Xmp \nhttps://ititli.com/XmD \nhttps://ititli.com/Xma \nhttps://ititli.com/Xmb \nhttps://ititli.com/Xmz\r\n\r\n----------------------------------------------------------------------------------------------------\r\n\r\n\r\nEncoder Notes: Looking For Early Access To Anything You Can Provide WEBDL, DVDScr, DVDR, BluRay,\r\nDirect Audio, Music Releases and Seedboxes. If You Got anything to offer please contact us.\r\n\r\nSupport us by donating BC - 1FgwdzPsd1y25Gea8wP1qni35uGCtmkRCD\r\n\r\nFind us and join us!","torrent":{"xt":"urn:btih:4c064714ebd451fd0ba69f72bb9a763cce3c426a","amp;dn":"Deadpool.2016.BRRip.720p.x264.AAC-PRiSTiNE+%5BP2PDL%5D","amp;tr":["udp%3A%2F%2Ftracker.leechers-paradise.org%3A6969","udp%3A%2F%2Fzer0day.ch%3A1337","udp%3A%2F%2Fopen.demonii.com%3A1337","udp%3A%2F%2Ftracker.coppersurfer.tk%3A6969","udp%3A%2F%2Fexodus.desync.com%3A6969"],"infoHash":"4c064714ebd451fd0ba69f72bb9a763cce3c426a","infoHashBuffer":{"type":"Buffer","data":[76,6,71,20,235,212,81,253,11,166,159,114,187,154,118,60,206,60,66,106]},"announce":[],"urlList":[]}}